<?xml version="1.0" encoding="UTF-8"?>
<svg version="1.1" xmlns="http://www.w3.org/2000/svg" width="680" height="480">
<path d="M0 0 C224.4 0 448.8 0 680 0 C680 158.4 680 316.8 680 480 C455.6 480 231.2 480 0 480 C0 321.6 0 163.2 0 0 Z " fill="#323232" transform="translate(0,0)"/>
<path d="M0 0 C224.4 0 448.8 0 680 0 C680 158.4 680 316.8 680 480 C455.6 480 231.2 480 0 480 C0 321.6 0 163.2 0 0 Z M413.51928711 28.81958008 C400.80076312 33.85444858 389.77857765 34.94345318 376.1875 34.5625 C374.16629303 34.53136973 372.14504973 34.50252356 370.1237793 34.47583008 C364.08015271 34.37976256 358.0408146 34.2052916 352 34 C351.1186438 33.97039185 350.2372876 33.94078369 349.32922363 33.91027832 C333.6815567 33.36523798 318.06670665 32.40661168 302.45703125 31.19921875 C236.82959788 26.14577811 172.63813331 26.85087182 119.9375 71.8125 C113.42093341 77.49282759 107.25859371 83.53666074 101.125 89.625 C100.25738037 90.48327393 99.38976074 91.34154785 98.49584961 92.22583008 C92.57728391 98.17385547 87.19448939 104.41319945 82 111 C81.47647949 111.65887207 80.95295898 112.31774414 80.41357422 112.99658203 C71.14631042 124.78980182 63.01914237 137.33857042 55 150 C54.33291016 151.04969971 54.33291016 151.04969971 53.65234375 152.12060547 C23.16650737 200.42757641 13.98704944 250.01541509 11.3125 306.375 C11.21769348 308.30780823 11.21769348 308.30780823 11.12097168 310.27966309 C10.02436493 332.93450407 9.72826904 355.57082748 9.75 378.25 C9.7503336 379.01549919 9.75066719 379.78099838 9.75101089 380.56969452 C9.75358727 384.99360958 9.76412488 389.41739107 9.78660774 393.84125137 C9.79652163 395.82009217 9.80339963 397.79894745 9.81016541 399.77780151 C9.38766423 414.67442157 9.38766423 414.67442157 15 428 C25.88482435 437.68627066 42.00373482 443.57397985 55 450 C55.66 450.33 56.32 450.66 57 451 C58.86690851 451.11148466 60.7377601 451.1592542 62.60791016 451.17700195 C63.78318268 451.18983719 64.9584552 451.20267242 66.16934204 451.21589661 C68.08485367 451.22697701 68.08485367 451.22697701 70.0390625 451.23828125 C71.34902191 451.246353 72.65898132 451.25442474 74.00863647 451.26274109 C76.78782014 451.27777382 79.56697822 451.28760711 82.34619141 451.29516602 C85.89024279 451.30619123 89.43365946 451.3405423 92.97748756 451.38033772 C96.37298594 451.41293335 99.76841982 451.41729507 103.1640625 451.42578125 C104.42892487 451.44328934 105.69378723 451.46079742 106.99697876 451.47883606 C114.98226206 451.45927336 121.09529022 450.90470978 127 445 C127.46006346 442.79749008 127.46006346 442.79749008 127.625 440.375 C127.69976562 439.55773437 127.77453125 438.74046875 127.8515625 437.8984375 C127.92503906 436.95871094 127.92503906 436.95871094 128 436 C128.99 435.67 129.98 435.34 131 435 C130.69393785 431.6333163 130.2999963 429.43845613 128.375 426.625 C125.0655319 424.36062709 122.9455667 424.59183793 119 425 C118.071875 425.33 117.14375 425.66 116.1875 426 C111.17725731 427.57184084 105.85795208 428.11171714 100.87109375 426.171875 C98.26912851 424.71607817 96.10737943 423.10737943 94 421 C91.44157411 404.75399558 97.17013925 391.46375715 104 377 C104.48645996 375.96101563 104.97291992 374.92203125 105.47412109 373.8515625 C115.30688788 353.17703928 126.61894685 338.22745735 147 327 C147.63679687 326.6184375 148.27359375 326.236875 148.9296875 325.84375 C151.63146046 324.74265008 153.8441395 324.80581285 156.75 324.875 C157.73484375 324.89304687 158.7196875 324.91109375 159.734375 324.9296875 C160.85585938 324.96449219 160.85585938 324.96449219 162 325 C164.71465852 330.82144456 167.03026899 336.71796375 169.1953125 342.76367188 C172.89384394 353.59822478 172.89384394 353.59822478 178.5 363.5 C182.17151716 368.65860763 184.06974042 374.2096848 186.1875 380.125 C189.41592979 389.09567398 193.0127779 397.77150163 197.125 406.375 C197.84272583 407.89697998 197.84272583 407.89697998 198.57495117 409.44970703 C204.99394548 423.27644562 204.99394548 423.27644562 216 433 C221.00444891 434.13979249 226.03052256 434.71285576 231.125 435.25 C233.18394333 435.48718102 235.24212991 435.73019845 237.30026245 435.9743042 C239.16149668 436.19186651 241.02432876 436.39562845 242.88720703 436.59863281 C245.35425673 436.9167371 247.6078312 437.35702975 250 438 C263.8195987 439.68438322 276.68200281 435.34431915 287.68920898 426.97998047 C289.28462353 425.69764148 290.84290831 424.3695022 292.3984375 423.0390625 C294.76598016 421.18342096 296.07017276 420.3749068 299 420 C298.26175558 416.89978501 298.26175558 416.89978501 295.875 415.25 C294 413 294 413 294.3125 409.3125 C294.6528125 407.6728125 294.6528125 407.6728125 295 406 C293.44193397 404.44193397 291.90212263 404.85472011 289.73828125 404.82421875 C288.86623047 404.80037109 287.99417969 404.77652344 287.09570312 404.75195312 C285.25999186 404.70944192 283.42398792 404.67794611 281.58789062 404.65820312 C275.97939736 404.48126607 272.26199159 404.01321175 268 400 C265.1328297 394.57497712 264.57563542 390.28146784 264.671875 384.20703125 C264.67374817 383.37975021 264.67562134 382.55246918 264.67755127 381.70011902 C264.68424303 379.95620673 264.69809992 378.21230872 264.71875 376.46850586 C264.7497049 373.83758101 264.75971189 371.20726037 264.765625 368.57617188 C264.80269548 360.61436632 264.99038692 352.73946225 265.76367188 344.80981445 C266.02807378 341.66621783 266.13247923 338.54033063 266.2109375 335.38671875 C266.23929687 334.28392578 266.26765625 333.18113281 266.296875 332.04492188 C266.34940869 329.78728652 266.39353953 327.52944153 266.4296875 325.27148438 C266.74397322 314.13398413 266.74397322 314.13398413 270 309 C272.29895635 307.28180094 274.2250577 306.07340169 276.75 304.8125 C277.4315918 304.4508374 278.11318359 304.0891748 278.81542969 303.71655273 C280.34065448 302.91142361 281.87129166 302.11649181 283.40625 301.33007812 C286.29237314 299.8500707 289.16202764 298.34062542 292.03125 296.828125 C297.67450173 293.86024825 303.32680784 290.91029724 309 288 C310.06734375 287.43357788 310.06734375 287.43357788 311.15625 286.85571289 C314.57761164 285.26780604 318.30589071 285.89134973 322 286 C325.72788738 293.80564918 328.30808508 301.85432878 330.82421875 310.1171875 C332.92347716 316.69096085 335.38052203 322.75653665 340 328 C340.66 328 341.32 328 342 328 C342.26425781 328.59425781 342.52851563 329.18851562 342.80078125 329.80078125 C344.04418284 332.08102587 345.29184276 333.43065519 347.1875 335.1875 C354.03314406 341.97633373 358.10657607 347.60725346 360.875 356.875 C363.39282535 365.22828592 367.07890098 370.55473811 373 377 C374.69682634 379.0875865 376.32213861 381.22404133 377.9375 383.375 C378.66839844 384.33148438 379.39929688 385.28796875 380.15234375 386.2734375 C384.37657768 392.50708503 384.36574497 397.99639779 384.375 405.3125 C384.39949219 406.31990234 384.42398437 407.32730469 384.44921875 408.36523438 C384.4742183 414.76095193 383.74762904 419.69706354 380 425 C377.68596584 427.1404816 375.43013314 428.73714086 372.75 430.375 C370.29047951 432.65884046 370.28946088 434.74356511 370 438 C368.02 438.66 366.04 439.32 364 440 C364.3701148 446.16857998 365.75775103 448.75775103 370 453 C373.1531032 454.97582178 375.59672879 455.25657991 379.2890625 455.265625 C380.31386719 455.26820313 381.33867187 455.27078125 382.39453125 455.2734375 C383.99361328 455.26183594 383.99361328 455.26183594 385.625 455.25 C387.18927734 455.26160156 387.18927734 455.26160156 388.78515625 455.2734375 C398.00665715 455.25041253 406.21048217 453.96724442 414.8125 450.5625 C415.87082031 450.15128906 416.92914063 449.74007813 418.01953125 449.31640625 C421.02556377 448.08493084 421.02556377 448.08493084 423.63671875 446.27734375 C426 445 426 445 427.90234375 445.04296875 C431.01251863 446.46194984 433.7512265 448.38867468 436.5625 450.3125 C451.53531335 460.1887644 466.81904399 461.15189469 484.33056641 461.65893555 C485.37647949 461.69027588 486.42239258 461.72161621 487.5 461.75390625 C488.90765625 461.78979858 488.90765625 461.78979858 490.34375 461.82641602 C492.97661536 461.99847183 495.42071217 462.46304187 498 463 C507.6365334 463.06627602 520.47822257 462.24036554 527.76171875 455.41015625 C528.50035156 454.61480469 529.23898437 453.81945312 530 453 C532.3125 452.1875 532.3125 452.1875 534 452 C534.928125 453.485 534.928125 453.485 535.875 455 C536.57625 455.99 537.2775 456.98 538 458 C538.66 458 539.32 458 540 458 C542.20579326 451.38262023 541.7909063 444.85543369 538.8125 438.5625 C536.31951119 434.10061662 533.60019163 431.30009581 529 429 C527.04880501 428.95042602 525.0958572 428.96369328 523.14453125 429.0078125 C521.96439453 429.02457031 520.78425781 429.04132813 519.56835938 429.05859375 C517.0838268 429.10252204 514.59942192 429.15447786 512.11523438 429.21484375 C504.47235051 429.30617642 499.2217724 429.1380224 492.9609375 424.484375 C475.3056114 405.17657995 477.83187884 366.80992657 477.75 342.625 C477.74209946 341.42309021 477.74209946 341.42309021 477.73403931 340.19689941 C477.66179009 326.00693547 479.53172427 315.30016323 485.3125 302.25 C486.31356369 299.92810188 487.31229009 297.60519458 488.30859375 295.28125 C488.78022949 294.18425781 489.25186523 293.08726562 489.73779297 291.95703125 C494.07714197 281.79103607 496.96111877 271.66401507 499.03857422 260.81152344 C500.48617827 253.74538228 502.59288903 247.27140732 508.8125 243.125 C509.8953125 242.568125 509.8953125 242.568125 511 242 C511 241.34 511 240.68 511 240 C522.08567895 236.95687245 532.77912824 235.78034199 544.25 235.625 C545.26771484 235.59905762 546.28542969 235.57311523 547.33398438 235.54638672 C553.40302186 235.53154074 557.84440557 236.32240482 563.24902344 239.13818359 C564.97380806 240.14720012 564.97380806 240.14720012 567 240 C567 240.66 567 241.32 567 242 C576.85464213 250.53820264 588.21141254 255.11673126 600.7734375 257.80859375 C605.68606835 259.04010589 610.04906618 261.24508414 614.5625 263.5 C623.15018263 267.7699677 631.18701335 271.44796718 641 270 C644.67449743 268.66419664 647.94670948 266.85096219 651.3125 264.875 C652.17939453 264.400625 653.04628906 263.92625 653.93945312 263.4375 C660.56469714 259.68065665 665.84342766 255.66649617 668 248 C668.61772282 242.26092402 668.90712765 236.88403435 666.375 231.625 C665.59125 230.75875 664.8075 229.8925 664 229 C662.97265777 227.85999883 661.95216299 226.71380089 660.9375 225.5625 C660.45152344 225.04816406 659.96554687 224.53382813 659.46484375 224.00390625 C654.03542495 216.57646133 653.80926435 208.24683289 654.58154297 199.38085938 C655.53971375 193.9292366 658.29018722 189.27443544 661.0546875 184.55078125 C665.15224754 177.36599188 665.38607638 170.33760645 665.375 162.25 C665.37483887 161.15051025 665.37467773 160.05102051 665.37451172 158.91821289 C665.22614758 148.14775718 663.20635398 138.25272317 660.43847656 127.8996582 C657.63108622 117.13080328 658.41380142 109.76171817 663.6875 99.91015625 C665.03853102 96.91456665 665.47812892 95.23149201 665 92 C662.426767 89.030885 660.75056765 87.34495532 656.87890625 86.58203125 C652.1712058 86.4106938 648.43301309 87.27770788 644.21484375 89.34375 C637.19434026 91.42389918 630.26687943 89.35447428 623.4375 87.5 C622.44024902 87.23300293 621.44299805 86.96600586 620.41552734 86.69091797 C580.31015158 75.68221551 580.31015158 75.68221551 566.0625 64.1875 C560.9977238 60.33688248 555.82881022 59.91977379 549.69067383 59.13378906 C543.81033402 58.32202706 539.40153185 56.64019937 534.359375 53.40234375 C529.94700829 50.77976155 525.43276604 49.82927626 520.39550781 49.06494141 C505.79531281 46.78917394 494.94471867 39.14290005 482.8046875 31.140625 C458.04502217 14.86693976 440.22061613 17.93070912 413.51928711 28.81958008 Z " fill="#F8F9FB" transform="translate(0,0)"/>
<path d="M0 0 C1.98 0.66 3.96 1.32 6 2 C5.67 3.98 5.34 5.96 5 8 C4.34 8 3.68 8 3 8 C1.02 4.535 1.02 4.535 -1 1 C-0.67 0.67 -0.34 0.34 0 0 Z " fill="#3B3B3C" transform="translate(535,450)"/>
<path d="M0 0 C0.99 0.99 1.98 1.98 3 3 C2.01 4.32 1.02 5.64 0 7 C-2 6 -2 6 -3 3 C-3.66 2.67 -4.32 2.34 -5 2 C-3.35 1.34 -1.7 0.68 0 0 Z " fill="#F1F2F4" transform="translate(122,448)"/>
<path d="M0 0 C0.66 0.33 1.32 0.66 2 1 C1.690625 1.598125 1.38125 2.19625 1.0625 2.8125 C-0.10209704 5.08956772 -0.10209704 5.08956772 -1 8 C-2.65 8 -4.3 8 -6 8 C-4.02 5.36 -2.04 2.72 0 0 Z " fill="#3F3F40" transform="translate(84,109)"/>
<path d="M0 0 C0.66 0.33 1.32 0.66 2 1 C1.8125 3.375 1.8125 3.375 1 6 C-1.5625 7.3125 -1.5625 7.3125 -4 8 C-3.6875 5.125 -3.6875 5.125 -3 2 C-2.01 1.34 -1.02 0.68 0 0 Z " fill="#EEEFF0" transform="translate(278,303)"/>
<path d="M0 0 C2.375 -0.1875 2.375 -0.1875 5 0 C5.66 0.99 6.32 1.98 7 3 C5.02 3.99 5.02 3.99 3 5 C2.01 3.35 1.02 1.7 0 0 Z " fill="#383939" transform="translate(375,378)"/>
<path d="M0 0 C0.33 1.32 0.66 2.64 1 4 C-1.3125 5.5625 -1.3125 5.5625 -4 7 C-4.99 6.67 -5.98 6.34 -7 6 C-4.69 4.02 -2.38 2.04 0 0 Z " fill="#EBECED" transform="translate(133,335)"/>
<path d="M0 0 C0.66 1.32 1.32 2.64 2 4 C0.68 4.99 -0.64 5.98 -2 7 C-2.66 5.35 -3.32 3.7 -4 2 C-3.01 2 -2.02 2 -1 2 C-0.67 1.34 -0.34 0.68 0 0 Z " fill="#3B3B3B" transform="translate(179,354)"/>
</svg>
